<?xml version="1.0" encoding="UTF-8" standalone="no"?>
<svg
   xmlns:dc="http://purl.org/dc/elements/1.1/"
   xmlns:cc="http://creativecommons.org/ns#"
   xmlns:rdf="http://www.w3.org/1999/02/22-rdf-syntax-ns#"
   xmlns:svg="http://www.w3.org/2000/svg"
   xmlns="http://www.w3.org/2000/svg"
   xmlns:sodipodi="http://sodipodi.sourceforge.net/DTD/sodipodi-0.dtd"
   xmlns:inkscape="http://www.inkscape.org/namespaces/inkscape"
   version="1.1"
   id="svg2"
   xml:space="preserve"
   width="666.66669"
   height="666.66669"
   viewBox="0 0 666.66669 666.66669"
   sodipodi:docname="3180753.ai"><metadata
     id="metadata8"><rdf:RDF><cc:Work
         rdf:about=""><dc:format>image/svg+xml</dc:format><dc:type
           rdf:resource="http://purl.org/dc/dcmitype/StillImage" /></cc:Work></rdf:RDF></metadata><defs
     id="defs6"><clipPath
       clipPathUnits="userSpaceOnUse"
       id="clipPath18"><path
         d="M 0,500 H 500 V 0 H 0 Z"
         id="path16" /></clipPath><clipPath
       clipPathUnits="userSpaceOnUse"
       id="clipPath30"><path
         d="M 72.8188,396.08 H 417.181 V 114.1 H 72.8188 Z"
         id="path28" /></clipPath><clipPath
       clipPathUnits="userSpaceOnUse"
       id="clipPath46"><path
         d="M 0,500 H 500 V 0 H 0 Z"
         id="path44" /></clipPath><clipPath
       clipPathUnits="userSpaceOnUse"
       id="clipPath58"><path
         d="M 111.584,109.676 H 382.005 V 43.9427 H 111.584 Z"
         id="path56" /></clipPath><clipPath
       clipPathUnits="userSpaceOnUse"
       id="clipPath126"><path
         d="M 0,500 H 500 V 0 H 0 Z"
         id="path124" /></clipPath><clipPath
       clipPathUnits="userSpaceOnUse"
       id="clipPath454"><path
         d="m 208.403,212.975 h 78.465 v -14.679 h -78.465 z"
         id="path452" /></clipPath><clipPath
       clipPathUnits="userSpaceOnUse"
       id="clipPath598"><path
         d="M 0,500 H 500 V 0 H 0 Z"
         id="path596" /></clipPath><clipPath
       clipPathUnits="userSpaceOnUse"
       id="clipPath614"><path
         d="M 0,500 H 500 V 0 H 0 Z"
         id="path612" /></clipPath><clipPath
       clipPathUnits="userSpaceOnUse"
       id="clipPath626"><path
         d="m 320.902,216.702 h 31.152 v -14.679 h -31.152 z"
         id="path624" /></clipPath></defs><sodipodi:namedview
     pagecolor="#ffffff"
     bordercolor="#666666"
     borderopacity="1"
     objecttolerance="10"
     gridtolerance="10"
     guidetolerance="10"
     inkscape:pageopacity="0"
     inkscape:pageshadow="2"
     inkscape:window-width="640"
     inkscape:window-height="480"
     id="namedview4" /><g
     id="g10"
     inkscape:groupmode="layer"
     inkscape:label="3180753"
     transform="matrix(1.3333333,0,0,-1.3333333,0,666.66667)"><g
       id="g12"><g
         id="g14"
         clip-path="url(#clipPath18)"><g
           id="g20"
           transform="translate(417.0742,277.938)"><path
             d="m 0,0 c 1.531,41.416 -13.354,83.335 -46.152,103.29 -16.196,9.853 -35.125,15.618 -54.063,14.77 -20.315,-0.91 -39.447,-9.179 -58.61,-15.981 -19.164,-6.804 -39.906,-12.274 -59.657,-7.434 -14.294,3.502 -26.865,12.151 -41.043,16.095 -55.67,15.486 -104.176,-47.722 -76.917,-97.937 6.69,-12.324 17.013,-22.203 25.666,-33.238 8.653,-11.033 15.94,-24.345 14.776,-38.318 -0.964,-11.566 -7.562,-21.872 -10.29,-33.153 -5.224,-21.605 5.133,-45.378 23.043,-58.542 17.911,-13.163 42.071,-16.272 63.629,-10.858 21.558,5.414 40.594,18.681 55.569,35.107 8.018,8.793 15.832,19.076 27.351,22.064 11.044,2.864 22.439,-1.793 33.645,-3.934 20.65,-3.945 42.858,1.107 59.769,13.595 C -16.18,-74.458 -1.384,-37.435 0,0"
             style="fill:#aaff00;fill-opacity:1;fill-rule:nonzero;stroke:none"
             id="path22" /></g><g
           id="g24"><g
             id="g26" /><g
             id="g38"><g
               clip-path="url(#clipPath30)"
               opacity="0.699997"
               id="g36"><g
                 transform="translate(417.0742,277.938)"
                 id="g34"><path
                   d="m 0,0 c 1.531,41.416 -13.354,83.335 -46.152,103.29 -16.196,9.853 -35.125,15.618 -54.063,14.77 -20.315,-0.91 -39.447,-9.179 -58.61,-15.981 -19.164,-6.804 -39.906,-12.274 -59.657,-7.434 -14.294,3.502 -26.865,12.151 -41.043,16.095 -55.67,15.486 -104.176,-47.722 -76.917,-97.937 6.69,-12.324 17.013,-22.203 25.666,-33.238 8.653,-11.033 15.94,-24.345 14.776,-38.318 -0.964,-11.566 -7.562,-21.872 -10.29,-33.153 -5.224,-21.605 5.133,-45.378 23.043,-58.542 17.911,-13.163 42.071,-16.272 63.629,-10.858 21.558,5.414 40.594,18.681 55.569,35.107 8.018,8.793 15.832,19.076 27.351,22.064 11.044,2.864 22.439,-1.793 33.645,-3.934 20.65,-3.945 42.858,1.107 59.769,13.595 C -16.18,-74.458 -1.384,-37.435 0,0"
                   style="fill:#ffffff;fill-opacity:1;fill-rule:nonzero;stroke:none"
                   id="path32" /></g></g></g></g></g></g><g
       id="g40"><g
         id="g42"
         clip-path="url(#clipPath46)"><g
           id="g48"
           transform="translate(382.0049,76.8096)"><path
             d="m 0,0 c 0,-18.152 -60.536,-32.867 -135.21,-32.867 -74.675,0 -135.211,14.715 -135.211,32.867 0,18.151 60.536,32.866 135.211,32.866 C -60.536,32.866 0,18.151 0,0"
             style="fill:#aaff00;fill-opacity:1;fill-rule:nonzero;stroke:none"
             id="path50" /></g><g
           id="g52"><g
             id="g54" /><g
             id="g66"><g
               clip-path="url(#clipPath58)"
               opacity="0.5"
               id="g64"><g
                 transform="translate(382.0049,76.8096)"
                 id="g62"><path
                   d="m 0,0 c 0,-18.152 -60.536,-32.867 -135.21,-32.867 -74.675,0 -135.211,14.715 -135.211,32.867 0,18.151 60.536,32.866 135.211,32.866 C -60.536,32.866 0,18.151 0,0"
                   style="fill:#ffffff;fill-opacity:1;fill-rule:nonzero;stroke:none"
                   id="path60" /></g></g></g></g></g></g><g
       id="g68"
       transform="translate(108.4326,299.9692)"><path
         d="M 0,0 0.894,-0.449"
         style="fill:none;stroke:#1a2e35;stroke-width:1;stroke-linecap:round;stroke-linejoin:round;stroke-miterlimit:4;stroke-dasharray:none;stroke-opacity:1"
         id="path70" /></g><g
       id="g72"
       transform="translate(111.1108,298.6245)"><path
         d="M 0,0 134.72,-67.67"
         style="fill:none;stroke:#1a2e35;stroke-width:1;stroke-linecap:round;stroke-linejoin:round;stroke-miterlimit:4;stroke-dasharray:1.997, 1.997;stroke-dashoffset:0;stroke-opacity:1"
         id="path74" /></g><g
       id="g76"
       transform="translate(246.7227,230.5059)"><path
         d="M 0,0 0.894,-0.449 0.402,0.422"
         style="fill:none;stroke:#1a2e35;stroke-width:1;stroke-linecap:round;stroke-linejoin:round;stroke-miterlimit:4;stroke-dasharray:none;stroke-opacity:1"
         id="path78" /></g><g
       id="g80"
       transform="translate(246.1484,232.6543)"><path
         d="M 0,0 -83.448,147.652"
         style="fill:none;stroke:#1a2e35;stroke-width:1;stroke-linecap:round;stroke-linejoin:round;stroke-miterlimit:4;stroke-dasharray:1.984, 1.984;stroke-dashoffset:0;stroke-opacity:1"
         id="path82" /></g><g
       id="g84"
       transform="translate(162.2124,381.1699)"><path
         d="M 0,0 -0.492,0.871"
         style="fill:none;stroke:#1a2e35;stroke-width:1;stroke-linecap:round;stroke-linejoin:round;stroke-miterlimit:4;stroke-dasharray:none;stroke-opacity:1"
         id="path86" /></g><g
       id="g88"
       transform="translate(386.7461,299.9692)"><path
         d="M 0,0 -0.895,-0.449"
         style="fill:none;stroke:#1a2e35;stroke-width:1;stroke-linecap:round;stroke-linejoin:round;stroke-miterlimit:4;stroke-dasharray:none;stroke-opacity:1"
         id="path90" /></g><g
       id="g92"
       transform="translate(384.0674,298.6245)"><path
         d="M 0,0 -134.72,-67.67"
         style="fill:none;stroke:#1a2e35;stroke-width:1;stroke-linecap:round;stroke-linejoin:round;stroke-miterlimit:4;stroke-dasharray:1.997, 1.997;stroke-dashoffset:0;stroke-opacity:1"
         id="path94" /></g><g
       id="g96"
       transform="translate(248.4556,230.5059)"><path
         d="m 0,0 -0.894,-0.449 0.493,0.871"
         style="fill:none;stroke:#1a2e35;stroke-width:1;stroke-linecap:round;stroke-linejoin:round;stroke-miterlimit:4;stroke-dasharray:none;stroke-opacity:1"
         id="path98" /></g><g
       id="g100"
       transform="translate(249.0298,232.6543)"><path
         d="M 0,0 83.449,147.652"
         style="fill:none;stroke:#1a2e35;stroke-width:1;stroke-linecap:round;stroke-linejoin:round;stroke-miterlimit:4;stroke-dasharray:1.984, 1.984;stroke-dashoffset:0;stroke-opacity:1"
         id="path102" /></g><g
       id="g104"
       transform="translate(332.9658,381.1699)"><path
         d="M 0,0 0.492,0.871"
         style="fill:none;stroke:#1a2e35;stroke-width:1;stroke-linecap:round;stroke-linejoin:round;stroke-miterlimit:4;stroke-dasharray:none;stroke-opacity:1"
         id="path106" /></g><g
       id="g108"
       transform="translate(247.6162,230.0566)"><path
         d="M 0,0 V 1"
         style="fill:none;stroke:#1a2e35;stroke-width:1;stroke-linecap:round;stroke-linejoin:round;stroke-miterlimit:4;stroke-dasharray:none;stroke-opacity:1"
         id="path110" /></g><g
       id="g112"
       transform="translate(247.6162,233.0752)"><path
         d="M 0,0 V 176.567"
         style="fill:none;stroke:#1a2e35;stroke-width:1;stroke-linecap:round;stroke-linejoin:round;stroke-miterlimit:4;stroke-dasharray:2.018, 2.018;stroke-dashoffset:0;stroke-opacity:1"
         id="path114" /></g><g
       id="g116"
       transform="translate(247.6162,410.6514)"><path
         d="M 0,0 V 1"
         style="fill:none;stroke:#1a2e35;stroke-width:1;stroke-linecap:round;stroke-linejoin:round;stroke-miterlimit:4;stroke-dasharray:none;stroke-opacity:1"
         id="path118" /></g><g
       id="g120"><g
         id="g122"
         clip-path="url(#clipPath126)"><g
           id="g128"
           transform="translate(214.2925,183.2637)"><path
             d="m 0,0 -0.313,-111.244 c -0.003,-0.654 0.407,-1.188 0.914,-1.188 0.492,0 0.896,0.505 0.913,1.142 L 3.71,-0.137 Z"
             style="fill:#ffffff;fill-opacity:1;fill-rule:nonzero;stroke:none"
             id="path130" /></g><g
           id="g132"
           transform="translate(214.2925,183.2637)"><path
             d="m 0,0 -0.313,-111.244 c -0.003,-0.654 0.407,-1.188 0.914,-1.188 0.492,0 0.896,0.505 0.913,1.142 L 3.71,-0.137 Z"
             style="fill:none;stroke:#1a2e35;stroke-width:1;stroke-linecap:round;stroke-linejoin:round;stroke-miterlimit:10;stroke-dasharray:none;stroke-opacity:1"
             id="path134" /></g><g
           id="g136"
           transform="translate(284.7021,186.8408)"><path
             d="m 0,0 0.265,-97.083 c 0.002,-0.553 -0.344,-1.003 -0.773,-1.003 -0.416,0 -0.757,0.426 -0.771,0.964 l -1.855,97.007 z"
             style="fill:#ffffff;fill-opacity:1;fill-rule:nonzero;stroke:none"
             id="path138" /></g><g
           id="g140"
           transform="translate(284.7021,186.8408)"><path
             d="m 0,0 0.265,-97.083 c 0.002,-0.553 -0.344,-1.003 -0.773,-1.003 -0.416,0 -0.757,0.426 -0.771,0.964 l -1.855,97.007 z"
             style="fill:none;stroke:#1a2e35;stroke-width:1;stroke-linecap:round;stroke-linejoin:round;stroke-miterlimit:10;stroke-dasharray:none;stroke-opacity:1"
             id="path142" /></g><g
           id="g144"
           transform="translate(213.2021,186.8408)"><path
             d="m 0,0 0.265,-97.083 c 0.002,-0.553 -0.345,-1.003 -0.772,-1.003 -0.416,0 -0.758,0.426 -0.772,0.964 l -1.855,97.007 z"
             style="fill:#ffffff;fill-opacity:1;fill-rule:nonzero;stroke:none"
             id="path146" /></g><g
           id="g148"
           transform="translate(213.2021,186.8408)"><path
             d="m 0,0 0.265,-97.083 c 0.002,-0.553 -0.345,-1.003 -0.772,-1.003 -0.416,0 -0.758,0.426 -0.772,0.964 l -1.855,97.007 z"
             style="fill:none;stroke:#1a2e35;stroke-width:1;stroke-linecap:round;stroke-linejoin:round;stroke-miterlimit:10;stroke-dasharray:none;stroke-opacity:1"
             id="path150" /></g><g
           id="g152"
           transform="translate(282.6885,183.2637)"><path
             d="m 0,0 0.313,-111.244 c 0.003,-0.654 -0.407,-1.188 -0.914,-1.188 -0.492,0 -0.896,0.505 -0.913,1.142 L -3.71,-0.137 Z"
             style="fill:#ffffff;fill-opacity:1;fill-rule:nonzero;stroke:none"
             id="path154" /></g><g
           id="g156"
           transform="translate(282.6885,183.2637)"><path
             d="m 0,0 0.313,-111.244 c 0.003,-0.654 -0.407,-1.188 -0.914,-1.188 -0.492,0 -0.896,0.505 -0.913,1.142 L -3.71,-0.137 Z"
             style="fill:none;stroke:#1a2e35;stroke-width:1;stroke-linecap:round;stroke-linejoin:round;stroke-miterlimit:10;stroke-dasharray:none;stroke-opacity:1"
             id="path158" /></g><g
           id="g160"
           transform="translate(292.5,185.6406)"><path
             d="M 0,0 C 0,-5.615 -19.923,-10.167 -44.5,-10.167 -69.077,-10.167 -89,-5.615 -89,0 -89,5.614 -69.077,10.166 -44.5,10.166 -19.923,10.166 0,5.614 0,0"
             style="fill:#aaff00;fill-opacity:1;fill-rule:nonzero;stroke:none"
             id="path162" /></g><g
           id="g164"
           transform="translate(292.5,185.6406)"><path
             d="M 0,0 C 0,-5.615 -19.923,-10.167 -44.5,-10.167 -69.077,-10.167 -89,-5.615 -89,0 -89,5.614 -69.077,10.166 -44.5,10.166 -19.923,10.166 0,5.614 0,0 Z"
             style="fill:none;stroke:#1a2e35;stroke-width:1;stroke-linecap:round;stroke-linejoin:round;stroke-miterlimit:10;stroke-dasharray:none;stroke-opacity:1"
             id="path166" /></g><g
           id="g168"
           transform="translate(222.5,227.1406)"><path
             d="m 0,0 c 0,0 -9.5,-14.5 -9.5,-23.5 0,-9 6,-16.5 10.5,-19 4.5,-2.5 50.5,-0.5 50.5,-0.5 0,0 12.5,7.5 11,20 C 61.249,-12.575 53,-0.5 53,-0.5 Z"
             style="fill:#1a2e35;fill-opacity:1;fill-rule:nonzero;stroke:none"
             id="path170" /></g><g
           id="g172"
           transform="translate(222.5,227.1406)"><path
             d="m 0,0 c 0,0 -9.5,-14.5 -9.5,-23.5 0,-9 6,-16.5 10.5,-19 4.5,-2.5 50.5,-0.5 50.5,-0.5 0,0 12.5,7.5 11,20 C 61.249,-12.575 53,-0.5 53,-0.5 Z"
             style="fill:none;stroke:#1a2e35;stroke-width:1;stroke-linecap:round;stroke-linejoin:round;stroke-miterlimit:10;stroke-dasharray:none;stroke-opacity:1"
             id="path174" /></g><g
           id="g176"
           transform="translate(241.0293,88.6406)"><path
             d="m 0,0 c 0,0 -2.5,-15 -6.5,-21 -4,-6 -10,-4.5 -9.5,2.5 0.5,7 7,18.5 7,18.5 z"
             style="fill:#ffffff;fill-opacity:1;fill-rule:nonzero;stroke:none"
             id="path178" /></g><g
           id="g180"
           transform="translate(241.0293,88.6406)"><path
             d="m 0,0 c 0,0 -2.5,-15 -6.5,-21 -4,-6 -10,-4.5 -9.5,2.5 0.5,7 7,18.5 7,18.5 z"
             style="fill:none;stroke:#1a2e35;stroke-width:1;stroke-linecap:round;stroke-linejoin:round;stroke-miterlimit:10;stroke-dasharray:none;stroke-opacity:1"
             id="path182" /></g><g
           id="g184"
           transform="translate(225.7305,73.9658)"><path
             d="m 0,0 c 0.021,-2.347 0.723,-4.837 3.363,-5.769 3.364,-1.187 6.725,3.89 9.135,8.336 1.779,5.987 2.801,12.108 2.801,12.108 h -9 C 6.299,14.675 1.798,6.708 0,0"
             style="fill:#1a2e35;fill-opacity:1;fill-rule:nonzero;stroke:none"
             id="path186" /></g><g
           id="g188"
           transform="translate(225.7305,73.9658)"><path
             d="m 0,0 c 0.021,-2.347 0.723,-4.837 3.363,-5.769 3.364,-1.187 6.725,3.89 9.135,8.336 1.779,5.987 2.801,12.108 2.801,12.108 h -9 C 6.299,14.675 1.798,6.708 0,0 Z"
             style="fill:none;stroke:#1a2e35;stroke-width:1;stroke-linecap:round;stroke-linejoin:round;stroke-miterlimit:10;stroke-dasharray:none;stroke-opacity:1"
             id="path190" /></g><g
           id="g192"
           transform="translate(235,212.6406)"><path
             d="M 0,0 C 0,0 9.5,-6 12,-13.5 14.5,-21 6.5,-124 6.5,-124 h -9 c 0,0 -4,42 -7,56.5 -3,14.5 1.5,34 1.5,37 0,3 -13,-3.5 -14,21.5"
             style="fill:#1a2e35;fill-opacity:1;fill-rule:nonzero;stroke:#1a2e35;stroke-width:1;stroke-linecap:round;stroke-linejoin:round;stroke-miterlimit:10;stroke-dasharray:none;stroke-opacity:1"
             id="path194" /></g><g
           id="g196"
           transform="translate(255.5,88.6406)"><path
             d="m 0,0 c 0,0 2.5,-15 6.5,-21 4,-6 10,-4.5 9.5,2.5 C 15.5,-11.5 9,0 9,0 Z"
             style="fill:#ffffff;fill-opacity:1;fill-rule:nonzero;stroke:none"
             id="path198" /></g><g
           id="g200"
           transform="translate(255.5,88.6406)"><path
             d="m 0,0 c 0,0 2.5,-15 6.5,-21 4,-6 10,-4.5 9.5,2.5 C 15.5,-11.5 9,0 9,0 Z"
             style="fill:none;stroke:#1a2e35;stroke-width:1;stroke-linecap:round;stroke-linejoin:round;stroke-miterlimit:10;stroke-dasharray:none;stroke-opacity:1"
             id="path202" /></g><g
           id="g204"
           transform="translate(267.1016,68.8467)"><path
             d="m 0,0 c 2.469,0 3.584,1.612 4.037,3.711 -1.475,6.943 -6.639,16.083 -6.639,16.083 h -9 c 0,0 0.843,-5.048 2.33,-10.457 C -6.987,5.046 -3.549,0 0,0"
             style="fill:#1a2e35;fill-opacity:1;fill-rule:nonzero;stroke:none"
             id="path206" /></g><g
           id="g208"
           transform="translate(267.1016,68.8467)"><path
             d="m 0,0 c 2.469,0 3.584,1.612 4.037,3.711 -1.475,6.943 -6.639,16.083 -6.639,16.083 h -9 c 0,0 0.843,-5.048 2.33,-10.457 C -6.987,5.046 -3.549,0 0,0 Z"
             style="fill:none;stroke:#1a2e35;stroke-width:1;stroke-linecap:round;stroke-linejoin:round;stroke-miterlimit:10;stroke-dasharray:none;stroke-opacity:1"
             id="path210" /></g><g
           id="g212"
           transform="translate(261.5293,212.6406)"><path
             d="M 0,0 C 0,0 -9.5,-6 -12,-13.5 -14.5,-21 -6.5,-124 -6.5,-124 h 9 c 0,0 4,42 7,56.5 3,14.5 -1.5,34 -1.5,37 0,3 14.471,-3 15.471,22"
             style="fill:#1a2e35;fill-opacity:1;fill-rule:nonzero;stroke:#1a2e35;stroke-width:1;stroke-linecap:round;stroke-linejoin:round;stroke-miterlimit:10;stroke-dasharray:none;stroke-opacity:1"
             id="path214" /></g><g
           id="g216"
           transform="translate(135.6323,216.8066)"><path
             d="m 0,0 -0.493,-121.222 c -0.004,-0.797 0.641,-1.444 1.437,-1.444 0.775,0 1.41,0.613 1.437,1.388 L 5.833,-0.166 Z"
             style="fill:#ffffff;fill-opacity:1;fill-rule:nonzero;stroke:none"
             id="path218" /></g><g
           id="g220"
           transform="translate(135.6323,216.8066)"><path
             d="m 0,0 -0.493,-121.222 c -0.004,-0.797 0.641,-1.444 1.437,-1.444 0.775,0 1.41,0.613 1.437,1.388 L 5.833,-0.166 Z"
             style="fill:none;stroke:#1a2e35;stroke-width:1;stroke-linecap:round;stroke-linejoin:round;stroke-miterlimit:10;stroke-dasharray:none;stroke-opacity:1"
             id="path222" /></g><g
           id="g224"
           transform="translate(127.4658,188.4736)"><path
             d="m 0,0 -0.493,-125.333 c -0.004,-0.797 0.641,-1.444 1.437,-1.444 0.775,0 1.41,0.613 1.437,1.387 L 5.833,-0.167 Z"
             style="fill:#ffffff;fill-opacity:1;fill-rule:nonzero;stroke:none"
             id="path226" /></g><g
           id="g228"
           transform="translate(127.4658,188.4736)"><path
             d="m 0,0 -0.493,-125.333 c -0.004,-0.797 0.641,-1.444 1.437,-1.444 0.775,0 1.41,0.613 1.437,1.387 L 5.833,-0.167 Z"
             style="fill:none;stroke:#1a2e35;stroke-width:1;stroke-linecap:round;stroke-linejoin:round;stroke-miterlimit:10;stroke-dasharray:none;stroke-opacity:1"
             id="path230" /></g><g
           id="g232"
           transform="translate(363.2314,216.8066)"><path
             d="m 0,0 0.493,-121.222 c 0.004,-0.797 -0.64,-1.444 -1.437,-1.444 -0.775,0 -1.41,0.613 -1.437,1.388 L -5.833,-0.166 Z"
             style="fill:#ffffff;fill-opacity:1;fill-rule:nonzero;stroke:none"
             id="path234" /></g><g
           id="g236"
           transform="translate(363.2314,216.8066)"><path
             d="m 0,0 0.493,-121.222 c 0.004,-0.797 -0.64,-1.444 -1.437,-1.444 -0.775,0 -1.41,0.613 -1.437,1.388 L -5.833,-0.166 Z"
             style="fill:none;stroke:#1a2e35;stroke-width:1;stroke-linecap:round;stroke-linejoin:round;stroke-miterlimit:10;stroke-dasharray:none;stroke-opacity:1"
             id="path238" /></g><g
           id="g240"
           transform="translate(371.3984,188.4736)"><path
             d="m 0,0 0.493,-125.333 c 0.004,-0.797 -0.64,-1.444 -1.437,-1.444 -0.775,0 -1.41,0.613 -1.437,1.387 L -5.833,-0.167 Z"
             style="fill:#ffffff;fill-opacity:1;fill-rule:nonzero;stroke:none"
             id="path242" /></g><g
           id="g244"
           transform="translate(371.3984,188.4736)"><path
             d="m 0,0 0.493,-125.333 c 0.004,-0.797 -0.64,-1.444 -1.437,-1.444 -0.775,0 -1.41,0.613 -1.437,1.387 L -5.833,-0.167 Z"
             style="fill:none;stroke:#1a2e35;stroke-width:1;stroke-linecap:round;stroke-linejoin:round;stroke-miterlimit:10;stroke-dasharray:none;stroke-opacity:1"
             id="path246" /></g><g
           id="g248"
           transform="translate(376.4639,195.251)"><path
             d="m 0,0 -3.603,3.243 -8.316,17.973 c -0.762,1.646 -2.476,2.709 -4.367,2.709 h -221.602 c -1.892,0 -3.606,-1.063 -4.368,-2.709 l -10.372,-22.415 -1.706,0.628 v -5.13 l 0.084,0.065 c 0.161,-1.318 1.324,-2.439 2.87,-2.439 H -2.794 c 1.628,0 2.82,1.243 2.875,2.651 z"
             style="fill:#1a2e35;fill-opacity:1;fill-rule:nonzero;stroke:none"
             id="path250" /></g><g
           id="g252"
           transform="translate(376.4639,195.251)"><path
             d="m 0,0 -3.603,3.243 -8.316,17.973 c -0.762,1.646 -2.476,2.709 -4.367,2.709 h -221.602 c -1.892,0 -3.606,-1.063 -4.368,-2.709 l -10.372,-22.415 -1.706,0.628 v -5.13 l 0.084,0.065 c 0.161,-1.318 1.324,-2.439 2.87,-2.439 H -2.794 c 1.628,0 2.82,1.243 2.875,2.651 z"
             style="fill:none;stroke:#1a2e35;stroke-width:1;stroke-linecap:round;stroke-linejoin:round;stroke-miterlimit:10;stroke-dasharray:none;stroke-opacity:1"
             id="path254" /></g><g
           id="g256"
           transform="translate(373.6699,191.8906)"><path
             d="m 0,0 h -248.586 c -2.087,0 -3.486,2.039 -2.646,3.855 l 11.77,25.435 c 0.762,1.647 2.476,2.71 4.368,2.71 h 221.602 c 1.891,0 3.605,-1.063 4.367,-2.71 L 2.646,3.855 C 3.485,2.039 2.087,0 0,0"
             style="fill:#ffffff;fill-opacity:1;fill-rule:nonzero;stroke:none"
             id="path258" /></g><g
           id="g260"
           transform="translate(373.6699,191.8906)"><path
             d="m 0,0 h -248.586 c -2.087,0 -3.486,2.039 -2.646,3.855 l 11.77,25.435 c 0.762,1.647 2.476,2.71 4.368,2.71 h 221.602 c 1.891,0 3.605,-1.063 4.367,-2.71 L 2.646,3.855 C 3.485,2.039 2.087,0 0,0 Z"
             style="fill:none;stroke:#1a2e35;stroke-width:1;stroke-linecap:round;stroke-linejoin:round;stroke-miterlimit:10;stroke-dasharray:none;stroke-opacity:1"
             id="path262" /></g><g
           id="g264"
           transform="translate(244.8706,302.2524)"><path
             d="m 0,0 c 0,0 -7.637,-1.363 -11.274,-3.747 -3.637,-2.385 -16.729,-6.813 -18.547,-9.879 -1.819,-3.066 -13.093,-42.922 -13.456,-45.988 -0.364,-3.066 3.273,-6.132 7.637,-6.132 4.364,0 14.547,28.274 14.547,28.274 l 4.364,-14.307 -10.228,-29.977 h 61.593 l -7.724,30.999 4.001,14.988 13.456,-33.043 c 0,0 5.818,-5.791 9.455,0.682 3.636,6.472 -8.001,31.68 -9.092,36.79 -1.091,5.11 -5.455,17.032 -8.729,20.78 C 32.731,-6.813 23.275,-3.066 17.82,-1.022 12.365,1.022 5.819,0.34 0,0"
             style="fill:#aaff00;fill-opacity:1;fill-rule:nonzero;stroke:none"
             id="path266" /></g><g
           id="g268"
           transform="translate(244.8706,302.2524)"><path
             d="m 0,0 c 0,0 -7.637,-1.363 -11.274,-3.747 -3.637,-2.385 -16.729,-6.813 -18.547,-9.879 -1.819,-3.066 -13.093,-42.922 -13.456,-45.988 -0.364,-3.066 3.273,-6.132 7.637,-6.132 4.364,0 14.547,28.274 14.547,28.274 l 4.364,-14.307 -10.228,-29.977 h 61.593 l -7.724,30.999 4.001,14.988 13.456,-33.043 c 0,0 5.818,-5.791 9.455,0.682 3.636,6.472 -8.001,31.68 -9.092,36.79 -1.091,5.11 -5.455,17.032 -8.729,20.78 C 32.731,-6.813 23.275,-3.066 17.82,-1.022 12.365,1.022 5.819,0.34 0,0 Z"
             style="fill:none;stroke:#1a2e35;stroke-width:1;stroke-linecap:round;stroke-linejoin:round;stroke-miterlimit:10;stroke-dasharray:none;stroke-opacity:1"
             id="path270" /></g><g
           id="g272"
           transform="translate(278.9531,278.1851)"><path
             d="m 0,0 -3.17,-11.701 4.302,5.478"
             style="fill:none;stroke:#1a2e35;stroke-width:1;stroke-linecap:round;stroke-linejoin:round;stroke-miterlimit:10;stroke-dasharray:none;stroke-opacity:1"
             id="path274" /></g><g
           id="g276"
           transform="translate(219.5522,278.7505)"><path
             d="m 0,0 4.225,-13.97 -6.488,8.313"
             style="fill:none;stroke:#1a2e35;stroke-width:1;stroke-linecap:round;stroke-linejoin:round;stroke-miterlimit:10;stroke-dasharray:none;stroke-opacity:1"
             id="path278" /></g><g
           id="g280"
           transform="translate(249.5981,281.4727)"><path
             d="m 0,0 c 11.011,-0.271 14.398,11.538 14.772,19.12 -0.588,0.226 -1.156,0.442 -1.68,0.638 -5.455,2.044 -12.001,1.363 -17.82,1.022 0,0 -4.524,-0.808 -8.266,-2.268 C -12.563,12.485 -10.406,0.256 0,0"
             style="fill:#ffffff;fill-opacity:1;fill-rule:nonzero;stroke:none"
             id="path282" /></g><g
           id="g284"
           transform="translate(249.5981,281.4727)"><path
             d="m 0,0 c 11.011,-0.271 14.398,11.538 14.772,19.12 -0.588,0.226 -1.156,0.442 -1.68,0.638 -5.455,2.044 -12.001,1.363 -17.82,1.022 0,0 -4.524,-0.808 -8.266,-2.268 C -12.563,12.485 -10.406,0.256 0,0 Z"
             style="fill:none;stroke:#1a2e35;stroke-width:1;stroke-linecap:round;stroke-linejoin:round;stroke-miterlimit:10;stroke-dasharray:none;stroke-opacity:1"
             id="path286" /></g><g
           id="g288"
           transform="translate(249.5981,281.4727)"><path
             d="M 0,0 -23.639,-60.636 H 22.184 Z"
             style="fill:#ffffff;fill-opacity:1;fill-rule:nonzero;stroke:none"
             id="path290" /></g><g
           id="g292"
           transform="translate(249.5981,281.4727)"><path
             d="M 0,0 -23.639,-60.636 H 22.184 Z"
             style="fill:none;stroke:#1a2e35;stroke-width:1;stroke-linecap:round;stroke-linejoin:round;stroke-miterlimit:10;stroke-dasharray:none;stroke-opacity:1"
             id="path294" /></g><g
           id="g296"
           transform="translate(294.1328,239.6855)"><path
             d="m 0,0 c 0,0 -6.437,-1.34 -8.583,-4.913 -2.146,-3.573 -4.768,-8.933 -7.391,-12.06 l 7.629,-4.019 c 0,0 8.107,6.029 11.206,8.486 3.1,2.456 4.53,7.147 2.146,11.39"
             style="fill:#aaff00;fill-opacity:1;fill-rule:nonzero;stroke:#1a2e35;stroke-width:1;stroke-linecap:round;stroke-linejoin:round;stroke-miterlimit:10;stroke-dasharray:none;stroke-opacity:1"
             id="path298" /></g><g
           id="g300"
           transform="translate(292.7021,233.209)"><path
             d="m 0,0 c -3.632,1.58 -6.196,1.174 -7.788,0.478 -2.018,-3.506 -4.386,-8.15 -6.755,-10.974 l 7.629,-4.02 c 0,0 8.106,6.03 11.206,8.487 0.425,0.337 0.814,0.718 1.171,1.132 C 4.414,-3.074 2.724,-1.184 0,0"
             style="fill:#ffffff;fill-opacity:1;fill-rule:nonzero;stroke:none"
             id="path302" /></g><g
           id="g304"
           transform="translate(292.7021,233.209)"><path
             d="m 0,0 c -3.632,1.58 -6.196,1.174 -7.788,0.478 -2.018,-3.506 -4.386,-8.15 -6.755,-10.974 l 7.629,-4.02 c 0,0 8.106,6.03 11.206,8.487 0.425,0.337 0.814,0.718 1.171,1.132 C 4.414,-3.074 2.724,-1.184 0,0 Z"
             style="fill:none;stroke:#1a2e35;stroke-width:1;stroke-linecap:round;stroke-linejoin:round;stroke-miterlimit:10;stroke-dasharray:none;stroke-opacity:1"
             id="path306" /></g><g
           id="g308"
           transform="translate(278.8682,223.9209)"><path
             d="m 0,0 c 0,0 -3.338,0.446 -5.245,-0.67 -1.907,-1.117 -5.722,-5.583 -4.529,-6.253 1.191,-0.67 3.576,3.573 4.768,3.573 1.192,0 3.815,-0.893 3.815,-0.893 z"
             style="fill:#ffffff;fill-opacity:1;fill-rule:nonzero;stroke:none"
             id="path310" /></g><g
           id="g312"
           transform="translate(278.8682,223.9209)"><path
             d="m 0,0 c 0,0 -3.338,0.446 -5.245,-0.67 -1.907,-1.117 -5.722,-5.583 -4.529,-6.253 1.191,-0.67 3.576,3.573 4.768,3.573 1.192,0 3.815,-0.893 3.815,-0.893 z"
             style="fill:none;stroke:#1a2e35;stroke-width:1;stroke-linecap:round;stroke-linejoin:round;stroke-miterlimit:10;stroke-dasharray:none;stroke-opacity:1"
             id="path314" /></g><g
           id="g316"
           transform="translate(284.6797,223.8437)"><path
             d="m 0,0 c 0,0 -4.529,1.34 -7.152,0.894 -2.622,-0.448 -6.199,-7.593 -7.391,-9.827 -1.192,-2.233 -0.238,-2.903 0.715,-2.233 0.954,0.67 4.054,5.583 4.054,5.583 l -2.623,-6.253 c 0,0 0.476,-0.893 1.43,-0.447 0.954,0.447 4.312,7.163 4.312,7.163 l -1.928,-6.94 c 0,0 0.478,-0.669 1.431,-0.446 0.954,0.223 3.576,5.807 3.576,5.807 0,0 -2.384,-6.477 -1.669,-6.7 0.716,-0.224 1.907,0.446 2.385,1.563 0.476,1.116 3.576,5.359 4.767,6.699 C 3.1,-3.797 2.623,-1.116 0,0"
             style="fill:#ffffff;fill-opacity:1;fill-rule:nonzero;stroke:none"
             id="path318" /></g><g
           id="g320"
           transform="translate(284.6797,223.8437)"><path
             d="m 0,0 c 0,0 -4.529,1.34 -7.152,0.894 -2.622,-0.448 -6.199,-7.593 -7.391,-9.827 -1.192,-2.233 -0.238,-2.903 0.715,-2.233 0.954,0.67 4.054,5.583 4.054,5.583 l -2.623,-6.253 c 0,0 0.476,-0.893 1.43,-0.447 0.954,0.447 4.312,7.163 4.312,7.163 l -1.928,-6.94 c 0,0 0.478,-0.669 1.431,-0.446 0.954,0.223 3.576,5.807 3.576,5.807 0,0 -2.384,-6.477 -1.669,-6.7 0.716,-0.224 1.907,0.446 2.385,1.563 0.476,1.116 3.576,5.359 4.767,6.699 C 3.1,-3.797 2.623,-1.116 0,0 Z"
             style="fill:none;stroke:#1a2e35;stroke-width:1;stroke-linecap:round;stroke-linejoin:round;stroke-miterlimit:10;stroke-dasharray:none;stroke-opacity:1"
             id="path322" /></g><g
           id="g324"
           transform="translate(274.9053,218.2607)"><path
             d="M 0,0 2.204,3.284"
             style="fill:none;stroke:#1a2e35;stroke-width:1;stroke-linecap:round;stroke-linejoin:round;stroke-miterlimit:10;stroke-dasharray:none;stroke-opacity:1"
             id="path326" /></g><g
           id="g328"
           transform="translate(278.0244,218.7236)"><path
             d="M 0,0 0.997,2.495"
             style="fill:none;stroke:#1a2e35;stroke-width:1;stroke-linecap:round;stroke-linejoin:round;stroke-miterlimit:10;stroke-dasharray:none;stroke-opacity:1"
             id="path330" /></g><g
           id="g332"
           transform="translate(281.1035,217.1445)"><path
             d="M 0,0 0.873,2.609"
             style="fill:none;stroke:#1a2e35;stroke-width:1;stroke-linecap:round;stroke-linejoin:round;stroke-miterlimit:10;stroke-dasharray:none;stroke-opacity:1"
             id="path334" /></g><g
           id="g336"
           transform="translate(229.936,317.0176)"><path
             d="m 0,0 c 0,0 1.55,-4.031 -1.241,-10.854 -2.791,-6.822 -1.24,-17.056 0.621,-22.018 1.86,-4.962 5.272,-10.544 6.202,-9.304 0.93,1.241 2.791,15.506 3.101,25.12 C 8.993,-7.442 8.063,-0.62 5.892,2.481 3.721,5.583 -0.31,4.032 0,0"
             style="fill:#1a2e35;fill-opacity:1;fill-rule:nonzero;stroke:none"
             id="path338" /></g><g
           id="g340"
           transform="translate(235.5181,274.8418)"><path
             d="m 0,0 c 0,0 -2.171,-5.892 -2.171,-10.233 0,-4.342 5.272,-6.823 5.272,-6.823 0,0 2.791,4.652 1.861,9.304 C 4.031,-3.101 0,0 0,0"
             style="fill:#1a2e35;fill-opacity:1;fill-rule:nonzero;stroke:none"
             id="path342" /></g><g
           id="g344"
           transform="translate(230.8076,322.127)"><path
             d="m 0,0 c 0,0 -2.273,3.948 -4.068,1.914 -1.794,-2.034 1.436,-6.7 3.23,-8.255 1.795,-1.555 3.111,-0.598 2.991,1.077 C 2.034,-3.589 0,0 0,0"
             style="fill:#ffffff;fill-opacity:1;fill-rule:nonzero;stroke:none"
             id="path346" /></g><g
           id="g348"
           transform="translate(230.8076,322.127)"><path
             d="m 0,0 c 0,0 -2.273,3.948 -4.068,1.914 -1.794,-2.034 1.436,-6.7 3.23,-8.255 1.795,-1.555 3.111,-0.598 2.991,1.077 C 2.034,-3.589 0,0 0,0 Z"
             style="fill:none;stroke:#1a2e35;stroke-width:1;stroke-linecap:round;stroke-linejoin:round;stroke-miterlimit:10;stroke-dasharray:none;stroke-opacity:1"
             id="path350" /></g><g
           id="g352"
           transform="translate(267.0176,322.127)"><path
             d="M 0,0 C 0,0 2.273,3.948 4.067,1.914 5.862,-0.12 2.632,-4.786 0.838,-6.341 -0.957,-7.896 -2.273,-6.939 -2.153,-5.264 -2.033,-3.589 0,0 0,0"
             style="fill:#ffffff;fill-opacity:1;fill-rule:nonzero;stroke:none"
             id="path354" /></g><g
           id="g356"
           transform="translate(267.0176,322.127)"><path
             d="M 0,0 C 0,0 2.273,3.948 4.067,1.914 5.862,-0.12 2.632,-4.786 0.838,-6.341 -0.957,-7.896 -2.273,-6.939 -2.153,-5.264 -2.033,-3.589 0,0 0,0 Z"
             style="fill:none;stroke:#1a2e35;stroke-width:1;stroke-linecap:round;stroke-linejoin:round;stroke-miterlimit:10;stroke-dasharray:none;stroke-opacity:1"
             id="path358" /></g><g
           id="g360"
           transform="translate(255.0264,290.8437)"><path
             d="m 0,0 c 0.942,5.05 1.503,11.782 1.503,11.782 0,0 -11.246,-1.555 -14.955,0.598 0,0 1.604,-7.215 3.427,-12.652"
             style="fill:#ffffff;fill-opacity:1;fill-rule:nonzero;stroke:#1a2e35;stroke-width:1;stroke-linecap:round;stroke-linejoin:round;stroke-miterlimit:10;stroke-dasharray:none;stroke-opacity:1"
             id="path362" /></g><g
           id="g364"
           transform="translate(231.0464,320.811)"><path
             d="m 0,0 c 0,0 3.111,-11.007 8.973,-17.467 5.862,-6.461 8.016,-8.016 11.126,-7.537 3.11,0.478 6.461,4.546 11.127,13.04 4.665,8.494 5.024,14.955 5.383,15.553 0.359,0.598 -0.957,12.562 -7.656,17.706 C 22.252,26.439 14.835,28.713 8.375,23.09 1.915,17.467 -2.153,8.255 0,0"
             style="fill:#ffffff;fill-opacity:1;fill-rule:nonzero;stroke:none"
             id="path366" /></g><g
           id="g368"
           transform="translate(231.0464,320.811)"><path
             d="m 0,0 c 0,0 3.111,-11.007 8.973,-17.467 5.862,-6.461 8.016,-8.016 11.126,-7.537 3.11,0.478 6.461,4.546 11.127,13.04 4.665,8.494 5.024,14.955 5.383,15.553 0.359,0.598 -0.957,12.562 -7.656,17.706 C 22.252,26.439 14.835,28.713 8.375,23.09 1.915,17.467 -2.153,8.255 0,0 Z"
             style="fill:none;stroke:#1a2e35;stroke-width:1;stroke-linecap:round;stroke-linejoin:round;stroke-miterlimit:10;stroke-dasharray:none;stroke-opacity:1"
             id="path370" /></g><g
           id="g372"
           transform="translate(251.1455,315.0684)"><path
             d="m 0,0 c 0,0 -0.718,-4.666 -0.598,-7.059 0.119,-2.393 0.837,-3.11 -0.239,-3.35 -1.077,-0.239 -2.273,1.436 -2.273,1.436"
             style="fill:none;stroke:#1a2e35;stroke-width:1;stroke-linecap:round;stroke-linejoin:round;stroke-miterlimit:10;stroke-dasharray:none;stroke-opacity:1"
             id="path374" /></g><g
           id="g376"
           transform="translate(247.8384,301.6626)"><path
             d="M 0,0 H 3.394"
             style="fill:none;stroke:#1a2e35;stroke-width:1;stroke-linecap:round;stroke-linejoin:round;stroke-miterlimit:10;stroke-dasharray:none;stroke-opacity:1"
             id="path378" /></g><g
           id="g380"
           transform="translate(246.8174,317.1831)"><path
             d="M 0,0 C 0,0 -2.273,5.623 -9.81,2.991"
             style="fill:none;stroke:#1a2e35;stroke-width:1;stroke-linecap:round;stroke-linejoin:round;stroke-miterlimit:10;stroke-dasharray:none;stroke-opacity:1"
             id="path382" /></g><g
           id="g384"
           transform="translate(253.0859,317.875)"><path
             d="M 0,0 C 0,0 1.914,5.503 8.733,2.273"
             style="fill:none;stroke:#1a2e35;stroke-width:1;stroke-linecap:round;stroke-linejoin:round;stroke-miterlimit:10;stroke-dasharray:none;stroke-opacity:1"
             id="path386" /></g><g
           id="g388"
           transform="translate(243.1812,314.6743)"><path
             d="m 0,0 c 0,-1.094 -0.443,-1.98 -0.99,-1.98 -0.547,0 -0.99,0.886 -0.99,1.98 0,1.093 0.443,1.98 0.99,1.98 C -0.443,1.98 0,1.093 0,0"
             style="fill:#1a2e35;fill-opacity:1;fill-rule:nonzero;stroke:none"
             id="path390" /></g><g
           id="g392"
           transform="translate(257.3145,314.6743)"><path
             d="m 0,0 c 0,-1.094 -0.443,-1.98 -0.99,-1.98 -0.547,0 -0.99,0.886 -0.99,1.98 0,1.093 0.443,1.98 0.99,1.98 C -0.443,1.98 0,1.093 0,0"
             style="fill:#1a2e35;fill-opacity:1;fill-rule:nonzero;stroke:none"
             id="path394" /></g><g
           id="g396"
           transform="translate(247.6606,312.6133)"><path
             d="m 0,0 c 0,-2.445 -2.813,-4.426 -6.282,-4.426 -3.47,0 -6.282,1.981 -6.282,4.426 0,2.444 2.622,3.474 6.091,3.474 C -3.003,3.474 0,2.444 0,0 Z"
             style="fill:none;stroke:#1a2e35;stroke-width:1.5;stroke-linecap:round;stroke-linejoin:round;stroke-miterlimit:10;stroke-dasharray:none;stroke-opacity:1"
             id="path398" /></g><g
           id="g400"
           transform="translate(263.5781,312.6133)"><path
             d="m 0,0 c 0,-2.445 -2.813,-4.426 -6.282,-4.426 -3.47,0 -6.282,1.981 -6.282,4.426 0,2.444 2.622,3.474 6.091,3.474 C -3.003,3.474 0,2.444 0,0 Z"
             style="fill:none;stroke:#1a2e35;stroke-width:1.5;stroke-linecap:round;stroke-linejoin:round;stroke-miterlimit:10;stroke-dasharray:none;stroke-opacity:1"
             id="path402" /></g><g
           id="g404"
           transform="translate(247.3022,314.2266)"><path
             d="M 0,0 C 0,0 1.551,0.931 4.032,-0.31"
             style="fill:none;stroke:#1a2e35;stroke-width:1.5;stroke-linecap:round;stroke-linejoin:round;stroke-miterlimit:10;stroke-dasharray:none;stroke-opacity:1"
             id="path406" /></g><g
           id="g408"
           transform="translate(246.0928,328.9014)"><path
             d="m 0,0 c -1.939,3.168 -1.881,8.338 -1.648,11.309 0.077,0.214 0.121,0.34 0.121,0.34 0,0 -0.232,-9.41 8.135,-15.672 1.179,-0.882 2.753,-1.561 4.43,-2.066 C 8.591,-6.256 3.547,-5.793 0,0 m 13.233,23.489 c -13.522,5.808 -23.031,0.042 -23.031,0.042 -1.031,-0.582 -1.918,-1.204 -2.616,-1.832 -4.612,-4.151 -7.418,-11.964 -7.059,-18.544 0.359,-6.58 4.547,-11.964 4.547,-11.964 0,0 4.665,2.992 8.135,9.093 1.794,3.156 3.137,6.081 4.019,8.176 0,-2.933 0.384,-6.475 1.919,-8.982 3.447,-5.629 8.344,-6.564 11.216,-6.564 1.407,0 2.327,0.224 2.355,0.231 0.142,0.037 0.251,0.133 0.314,0.253 3.861,-0.818 7.7,-0.746 8.291,0.067 0.957,1.316 2.307,5.402 2.752,10.408 0.745,8.381 -4.599,15.747 -10.842,19.616"
             style="fill:#1a2e35;fill-opacity:1;fill-rule:nonzero;stroke:none"
             id="path410" /></g><g
           id="g412"
           transform="translate(246.2603,344.6113)"><path
             d="m 0,0 c 0,0 -0.822,-6.059 6.88,-12.015 7.703,-5.956 14.994,-3.594 14.994,-3.594"
             style="fill:none;stroke:#ffffff;stroke-width:0.5;stroke-linecap:round;stroke-linejoin:round;stroke-miterlimit:10;stroke-dasharray:none;stroke-opacity:1"
             id="path414" /></g><g
           id="g416"
           transform="translate(247.3901,346.6655)"><path
             d="M 0,0 C 0,0 8.113,-11.81 19.306,-8.729"
             style="fill:none;stroke:#ffffff;stroke-width:0.5;stroke-linecap:round;stroke-linejoin:round;stroke-miterlimit:10;stroke-dasharray:none;stroke-opacity:1"
             id="path418" /></g><g
           id="g420"
           transform="translate(203.1455,243.8564)"><path
             d="m 0,0 c 0,0 -4.837,-1.452 -8.845,-3.723 -4.008,-2.27 -18.376,-10.489 -22.714,-11.817 -4.338,-1.328 -6.754,-1.11 -8.859,-3.302 -2.104,-2.19 -8.769,-9.127 -9.618,-12.137 -0.849,-3.008 0.48,-2.687 1.702,-1.872 1.221,0.816 4.681,5.177 7.737,5.475 3.057,0.297 4.265,0.189 4.299,-1.445 0.034,-1.634 -2.001,-7.093 -0.382,-6.622 1.619,0.471 2.347,3.05 3.365,5.78 1.018,2.729 0.902,6.707 1.435,7.717 0.532,1.009 16.286,3.959 21.285,4.93 4.998,0.972 13.497,4.073 16.02,6.14 2.523,2.067 4.265,8.115 4.265,8.115"
             style="fill:#aaff00;fill-opacity:1;fill-rule:nonzero;stroke:#1a2e35;stroke-width:1;stroke-linecap:round;stroke-linejoin:round;stroke-miterlimit:10;stroke-dasharray:none;stroke-opacity:1"
             id="path422" /></g><g
           id="g424"
           transform="translate(158.4644,215.0137)"><path
             d="m 0,0 c 0,0 -6.121,-4.081 -5.355,-6.886 0.764,-2.805 6.12,-3.826 9.181,-2.296 3.06,1.531 5.356,2.551 5.865,6.376 C 10.202,1.021 8.926,2.551 6.121,2.551 3.315,2.551 0,0 0,0"
             style="fill:#1a2e35;fill-opacity:1;fill-rule:nonzero;stroke:none"
             id="path426" /></g><g
           id="g428"
           transform="translate(158.4644,215.0137)"><path
             d="m 0,0 c 0,0 -6.121,-4.081 -5.355,-6.886 0.764,-2.805 6.12,-3.826 9.181,-2.296 3.06,1.531 5.356,2.551 5.865,6.376 C 10.202,1.021 8.926,2.551 6.121,2.551 3.315,2.551 0,0 0,0 Z"
             style="fill:none;stroke:#1a2e35;stroke-width:1;stroke-linecap:round;stroke-linejoin:round;stroke-miterlimit:10;stroke-dasharray:none;stroke-opacity:1"
             id="path430" /></g><g
           id="g432"
           transform="translate(192.5503,226.8408)"><path
             d="m 0,0 c 2.467,0.479 5.786,1.479 8.819,2.615 -1.767,6.133 -5.484,8.733 -8.66,9.811 -5.434,-2.894 -17.236,-9.76 -21.123,-10.95 -4.338,-1.329 -6.754,-1.111 -8.859,-3.302 -2.104,-2.191 -8.768,-9.127 -9.617,-12.137 -0.85,-3.009 0.48,-2.687 1.701,-1.872 1.221,0.815 4.681,5.177 7.738,5.475 3.056,0.297 4.264,0.188 4.298,-1.446 0.035,-1.633 -2.001,-7.092 -0.381,-6.622 1.619,0.472 2.346,3.051 3.364,5.781 1.018,2.729 0.902,6.707 1.435,7.716 C -20.752,-3.921 -4.999,-0.972 0,0"
             style="fill:#ffffff;fill-opacity:1;fill-rule:nonzero;stroke:none"
             id="path434" /></g><g
           id="g436"
           transform="translate(192.5503,226.8408)"><path
             d="m 0,0 c 2.467,0.479 5.786,1.479 8.819,2.615 -1.767,6.133 -5.484,8.733 -8.66,9.811 -5.434,-2.894 -17.236,-9.76 -21.123,-10.95 -4.338,-1.329 -6.754,-1.111 -8.859,-3.302 -2.104,-2.191 -8.768,-9.127 -9.617,-12.137 -0.85,-3.009 0.48,-2.687 1.701,-1.872 1.221,0.815 4.681,5.177 7.738,5.475 3.056,0.297 4.264,0.188 4.298,-1.446 0.035,-1.633 -2.001,-7.092 -0.381,-6.622 1.619,0.472 2.346,3.051 3.364,5.781 1.018,2.729 0.902,6.707 1.435,7.716 C -20.752,-3.921 -4.999,-0.972 0,0 Z"
             style="fill:none;stroke:#1a2e35;stroke-width:1;stroke-linecap:round;stroke-linejoin:round;stroke-miterlimit:10;stroke-dasharray:none;stroke-opacity:1"
             id="path438" /></g><g
           id="g440"
           transform="translate(163.7012,220.5635)"><path
             d="m 0,0 c 0,0 -5.222,-2.703 -6.335,-4.014 -1.113,-1.309 -1.988,-6.168 -0.43,-5.911 1.559,0.256 3.049,3.78 3.751,4.511 0.701,0.729 3.42,1.587 3.42,1.587"
             style="fill:#ffffff;fill-opacity:1;fill-rule:nonzero;stroke:#1a2e35;stroke-width:1;stroke-linecap:round;stroke-linejoin:round;stroke-miterlimit:10;stroke-dasharray:none;stroke-opacity:1"
             id="path442" /></g><g
           id="g444"
           transform="translate(286.8682,205.6348)"><path
             d="m 0,0 c 0,-4.053 -17.564,-7.339 -39.232,-7.339 -21.668,0 -39.233,3.286 -39.233,7.339 0,4.054 17.565,7.34 39.233,7.34 C -17.564,7.34 0,4.054 0,0"
             style="fill:#aaff00;fill-opacity:1;fill-rule:nonzero;stroke:none"
             id="path446" /></g><g
           id="g448"><g
             id="g450" /><g
             id="g462"><g
               clip-path="url(#clipPath454)"
               opacity="0.5"
               id="g460"><g
                 transform="translate(286.8682,205.6348)"
                 id="g458"><path
                   d="m 0,0 c 0,-4.053 -17.564,-7.339 -39.232,-7.339 -21.668,0 -39.233,3.286 -39.233,7.339 0,4.054 17.565,7.34 39.233,7.34 C -17.564,7.34 0,4.054 0,0"
                   style="fill:#ffffff;fill-opacity:1;fill-rule:nonzero;stroke:none"
                   id="path456" /></g></g></g></g><g
           id="g464"
           transform="translate(281.8994,204.7187)"><path
             d="m 0,0 h -68.554 c -0.636,0 -1.153,0.517 -1.153,1.152 0,0.637 0.517,1.153 1.153,1.153 L 0,2.305 C 0.637,2.305 1.152,1.789 1.152,1.152 1.152,0.517 0.637,0 0,0"
             style="fill:#ffffff;fill-opacity:1;fill-rule:nonzero;stroke:none"
             id="path466" /></g><g
           id="g468"
           transform="translate(281.8994,204.7187)"><path
             d="m 0,0 h -68.554 c -0.636,0 -1.153,0.517 -1.153,1.152 0,0.637 0.517,1.153 1.153,1.153 L 0,2.305 C 0.637,2.305 1.152,1.789 1.152,1.152 1.152,0.517 0.637,0 0,0 Z"
             style="fill:none;stroke:#1a2e35;stroke-width:1;stroke-linecap:round;stroke-linejoin:round;stroke-miterlimit:10;stroke-dasharray:none;stroke-opacity:1"
             id="path470" /></g><g
           id="g472"
           transform="translate(282.4775,207.0361)"><path
             d="m 0,0 h -69.722 c -0.538,0 -0.986,0.412 -1.03,0.948 l -3.795,45.547 c -0.051,0.603 0.425,1.12 1.03,1.12 H 3.794 c 0.605,0 1.081,-0.517 1.031,-1.12 L 1.03,0.948 C 0.985,0.412 0.537,0 0,0"
             style="fill:#ffffff;fill-opacity:1;fill-rule:nonzero;stroke:none"
             id="path474" /></g><g
           id="g476"
           transform="translate(282.4775,207.0361)"><path
             d="m 0,0 h -69.722 c -0.538,0 -0.986,0.412 -1.03,0.948 l -3.795,45.547 c -0.051,0.603 0.425,1.12 1.03,1.12 H 3.794 c 0.605,0 1.081,-0.517 1.031,-1.12 L 1.03,0.948 C 0.985,0.412 0.537,0 0,0 Z"
             style="fill:none;stroke:#1a2e35;stroke-width:1;stroke-linecap:round;stroke-linejoin:round;stroke-miterlimit:10;stroke-dasharray:none;stroke-opacity:1"
             id="path478" /></g><g
           id="g480"
           transform="translate(283.5078,207.9844)"><path
             d="m 0,0 2.238,26.864 c -12.962,0.762 -28.52,-3.441 -46.23,-14.739 -13.043,-8.32 -22.233,-9.53 -28.071,-8.769 L -71.783,0 c 0.045,-0.536 0.493,-0.948 1.031,-0.948 H -1.03 c 0.537,0 0.985,0.412 1.03,0.948"
             style="fill:#1a2e35;fill-opacity:1;fill-rule:nonzero;stroke:none"
             id="path482" /></g><g
           id="g484"
           transform="translate(254.1992,230.0566)"><path
             d="m 0,0 c 0,-2.715 -2.947,-4.916 -6.583,-4.916 -3.636,0 -6.583,2.201 -6.583,4.916 0,2.716 2.947,4.917 6.583,4.917 C -2.947,4.917 0,2.716 0,0"
             style="fill:#1a2e35;fill-opacity:1;fill-rule:nonzero;stroke:none"
             id="path486" /></g><g
           id="g488"
           transform="translate(155.1489,206.5977)"><path
             d="m 0,0 c 0,0 -3.315,-3.826 -8.161,-7.396 -4.846,-3.571 -2.296,-8.671 -2.041,-13.517 0.256,-4.846 4.081,-22.189 12.752,-23.209 8.672,-1.02 6.376,33.41 15.303,36.471 8.926,3.06 29.839,-1.276 42.591,-1.531 12.752,-0.255 9.436,7.142 9.436,7.142"
             style="fill:none;stroke:#1a2e35;stroke-width:1;stroke-linecap:round;stroke-linejoin:round;stroke-miterlimit:10;stroke-dasharray:none;stroke-opacity:1"
             id="path490" /></g></g></g><g
       id="g492"
       transform="translate(416.2734,279.958)"><path
         d="M 0,0 -26.821,15.489 V 26.314 L 0,10.938 Z M -33.064,37.337 V 11.348 l 39.307,-22.7 v 26.154 z"
         style="fill:#1a2e35;fill-opacity:1;fill-rule:nonzero;stroke:none"
         id="path494" /></g><g
       id="g496"
       transform="translate(416.2734,279.958)"><path
         d="M 0,0 -26.821,15.489 V 26.314 L 0,10.938 Z M -33.064,37.337 V 11.348 l 39.307,-22.7 v 26.154 z"
         style="fill:none;stroke:#1a2e35;stroke-width:1;stroke-linecap:butt;stroke-linejoin:miter;stroke-miterlimit:10;stroke-dasharray:none;stroke-opacity:1"
         id="path498" /></g><g
       id="g500"
       transform="translate(416.2734,306.2725)"><path
         d="m 0,0 v -7.996 l 6.243,-3.517 v 22.535 l -39.307,-22.535 v -26.153 l 19.835,11.455 v 7.746 l -13.592,-7.849 v 10.938 l 13.592,7.792 v 7.228 l 6.373,-3.575 z"
         style="fill:#ffffff;fill-opacity:1;fill-rule:nonzero;stroke:none"
         id="path502" /></g><g
       id="g504"
       transform="translate(416.2734,306.2725)"><path
         d="m 0,0 v -7.996 l 6.243,-3.517 v 22.535 l -39.307,-22.535 v -26.153 l 19.835,11.455 v 7.746 l -13.592,-7.849 v 10.938 l 13.592,7.792 v 7.228 l 6.373,-3.575 z"
         style="fill:none;stroke:#1a2e35;stroke-width:1;stroke-linecap:butt;stroke-linejoin:miter;stroke-miterlimit:10;stroke-dasharray:none;stroke-opacity:1"
         id="path506" /></g><g
       id="g508"
       transform="translate(416.2734,290.896)"><path
         d="M 0,0 -3.999,2.241 -13.101,-3.015 -6.556,-6.981 0,-3.195 Z"
         style="fill:#ffffff;fill-opacity:1;fill-rule:nonzero;stroke:none"
         id="path510" /></g><g
       id="g512"
       transform="translate(416.2734,290.896)"><path
         d="M 0,0 -3.999,2.241 -13.101,-3.015 -6.556,-6.981 0,-3.195 Z"
         style="fill:none;stroke:#1a2e35;stroke-width:1;stroke-linecap:butt;stroke-linejoin:miter;stroke-miterlimit:10;stroke-dasharray:none;stroke-opacity:1"
         id="path514" /></g><g
       id="g516"
       transform="translate(368.708,400.1577)"><path
         d="m 0,0 -46.19,-31.16 8.438,-12.509 46.19,31.16 z"
         style="fill:#1a2e35;fill-opacity:1;fill-rule:nonzero;stroke:none"
         id="path518" /></g><g
       id="g520"
       transform="translate(350.4873,390.8428)"><path
         d="m 0,0 -9.98,14.795 -11.224,-7.571 9.98,-14.796 z"
         style="fill:#1a2e35;fill-opacity:1;fill-rule:nonzero;stroke:none"
         id="path522" /></g><g
       id="g524"
       transform="translate(350.4619,366.6709)"><path
         d="M 0,0 9.98,-14.795 21.205,-7.224 11.224,7.571 Z"
         style="fill:#1a2e35;fill-opacity:1;fill-rule:nonzero;stroke:none"
         id="path526" /></g><g
       id="g528"
       transform="translate(358.6904,396.3765)"><path
         d="m 0,0 -5.398,8.003 -6.145,-4.145 5.399,-8.003 z"
         style="fill:#1a2e35;fill-opacity:1;fill-rule:nonzero;stroke:none"
         id="path530" /></g><g
       id="g532"
       transform="translate(363.7451,375.6313)"><path
         d="M 0,0 3.482,-5.162 9.626,-1.017 6.144,4.145 Z"
         style="fill:#1a2e35;fill-opacity:1;fill-rule:nonzero;stroke:none"
         id="path534" /></g><g
       id="g536"
       transform="translate(336.8984,381.6758)"><path
         d="m 0,0 -5.43,8.049 -7.871,-5.309 5.43,-8.05 z"
         style="fill:#1a2e35;fill-opacity:1;fill-rule:nonzero;stroke:none"
         id="path538" /></g><g
       id="g540"
       transform="translate(340.2266,359.7661)"><path
         d="M 0,0 3.451,-5.116 11.321,0.193 7.87,5.31 Z"
         style="fill:#1a2e35;fill-opacity:1;fill-rule:nonzero;stroke:none"
         id="path542" /></g><g
       id="g544"
       transform="translate(340.6445,356.0591)"><path
         d="M 0,0 -2.415,3.58 -6.017,1.15 -3.602,-2.43 Z"
         style="fill:#1a2e35;fill-opacity:1;fill-rule:nonzero;stroke:none"
         id="path546" /></g><g
       id="g548"
       transform="translate(329.6836,391.9619)"><path
         d="M 0,0 -1.95,2.892 -4.86,0.929 -2.909,-1.963 Z"
         style="fill:#1a2e35;fill-opacity:1;fill-rule:nonzero;stroke:none"
         id="path550" /></g><g
       id="g552"
       transform="translate(247.0566,447.9106)"><path
         d="M 0,0 -23.605,-8.017 -20.26,-39.908 0,-51.139 Z"
         style="fill:#ffffff;fill-opacity:1;fill-rule:nonzero;stroke:none"
         id="path554" /></g><g
       id="g556"
       transform="translate(247.0566,447.9106)"><path
         d="M 0,0 -23.605,-8.017 -20.26,-39.908 0,-51.139 Z"
         style="fill:none;stroke:#1a2e35;stroke-width:1;stroke-linecap:round;stroke-linejoin:round;stroke-miterlimit:10;stroke-dasharray:none;stroke-opacity:1"
         id="path558" /></g><g
       id="g560"
       transform="translate(247.1377,447.9106)"><path
         d="M 0,0 23.605,-8.017 20.261,-39.908 0,-51.139 Z"
         style="fill:#1a2e35;fill-opacity:1;fill-rule:nonzero;stroke:none"
         id="path562" /></g><g
       id="g564"
       transform="translate(247.1377,447.9106)"><path
         d="M 0,0 23.605,-8.017 20.261,-39.908 0,-51.139 Z"
         style="fill:none;stroke:#1a2e35;stroke-width:1;stroke-linecap:round;stroke-linejoin:round;stroke-miterlimit:10;stroke-dasharray:none;stroke-opacity:1"
         id="path566" /></g><g
       id="g568"
       transform="translate(242.6919,421.1343)"><path
         d="M 0,0 4.409,9.714 8.818,0 Z m 14.295,-12.069 h 4.913 l -14.799,32.608 -14.8,-32.608 h 4.913 l 3.391,7.471 h 12.992 z"
         style="fill:#ffffff;fill-opacity:1;fill-rule:nonzero;stroke:none"
         id="path570" /></g><g
       id="g572"
       transform="translate(242.6919,421.1343)"><path
         d="M 0,0 4.409,9.714 8.818,0 Z m 14.295,-12.069 h 4.913 l -14.799,32.608 -14.8,-32.608 h 4.913 l 3.391,7.471 h 12.992 z"
         style="fill:none;stroke:#1a2e35;stroke-width:1;stroke-linecap:round;stroke-linejoin:round;stroke-miterlimit:10;stroke-dasharray:none;stroke-opacity:1"
         id="path574" /></g><g
       id="g576"
       transform="translate(155.4805,393.8247)"><path
         d="m 0,0 -6.364,11.023 h -22.49 L 0,-38.953 28.854,11.023 H 6.364 Z"
         style="fill:#ffffff;fill-opacity:1;fill-rule:nonzero;stroke:none"
         id="path578" /></g><g
       id="g580"
       transform="translate(155.4805,393.8247)"><path
         d="m 0,0 -6.364,11.023 h -22.49 L 0,-38.953 28.854,11.023 H 6.364 Z"
         style="fill:none;stroke:#1a2e35;stroke-width:1;stroke-linecap:round;stroke-linejoin:round;stroke-miterlimit:10;stroke-dasharray:none;stroke-opacity:1"
         id="path582" /></g><g
       id="g584"
       transform="translate(155.4805,393.8247)"><path
         d="M 0,0 -6.364,11.023 H -17.266 L 0,-18.882 17.266,11.023 H 6.364 Z"
         style="fill:#1a2e35;fill-opacity:1;fill-rule:nonzero;stroke:none"
         id="path586" /></g><g
       id="g588"
       transform="translate(155.4805,393.8247)"><path
         d="M 0,0 -6.364,11.023 H -17.266 L 0,-18.882 17.266,11.023 H 6.364 Z"
         style="fill:none;stroke:#1a2e35;stroke-width:1;stroke-linecap:round;stroke-linejoin:round;stroke-miterlimit:10;stroke-dasharray:none;stroke-opacity:1"
         id="path590" /></g><g
       id="g592"><g
         id="g594"
         clip-path="url(#clipPath598)"><g
           id="g600"
           transform="translate(119.249,293.5361)"><path
             d="m 0,0 c -0.688,2.343 -1.585,4.775 -2.668,7.233 1.054,2.465 1.922,4.901 2.585,7.247 1.005,-0.289 1.965,-0.606 2.87,-0.953 C 7.306,11.796 10.01,9.463 10.021,7.287 10.033,4.677 6.275,1.873 0,0 m -3.523,-15.842 c -1.903,-1.055 -5.261,0.162 -8.982,3.256 -0.552,0.458 -1.103,0.951 -1.655,1.474 1.716,1.899 3.396,4.055 4.99,6.412 2.488,0.26 4.871,0.652 7.099,1.163 1.436,-6.389 0.83,-11.039 -1.452,-12.305 m -25.261,-0.138 c -2.298,1.241 -2.954,5.89 -1.584,12.301 2.231,-0.488 4.615,-0.855 7.103,-1.09 1.62,-2.341 3.325,-4.481 5.063,-6.363 -3.495,-3.385 -6.739,-5.21 -9.027,-5.209 -0.584,0 -1.107,0.118 -1.555,0.361 M -42.581,7.03 c -0.013,2.61 3.746,5.413 10.02,7.286 0.689,-2.343 1.586,-4.774 2.669,-7.233 -1.054,-2.465 -1.923,-4.901 -2.585,-7.248 -6.302,1.812 -10.091,4.583 -10.104,7.195 m 11.549,13.784 c -0.655,4.795 0.091,8.289 1.994,9.344 0.452,0.251 0.985,0.373 1.586,0.373 1.931,0 4.558,-1.268 7.397,-3.628 0.551,-0.458 1.103,-0.952 1.654,-1.474 -1.716,-1.899 -3.395,-4.055 -4.989,-6.413 -2.488,-0.259 -4.872,-0.651 -7.1,-1.162 -0.228,1.015 -0.411,2.005 -0.542,2.96 M -5.58,13.093 c -0.538,0.97 -1.095,1.918 -1.665,2.845 1.507,-0.2 2.961,-0.453 4.349,-0.754 -0.406,-1.433 -0.894,-2.902 -1.46,-4.395 -0.392,0.77 -0.799,1.538 -1.224,2.304 m -10.789,10.263 c 1.127,-1.229 2.241,-2.574 3.327,-4.023 -1.088,0.044 -2.187,0.066 -3.297,0.061 -1.115,-0.005 -2.218,-0.039 -3.309,-0.093 1.068,1.459 2.167,2.815 3.279,4.055 M -28.243,10.658 c -0.585,1.492 -1.09,2.961 -1.513,4.393 1.363,0.311 2.818,0.58 4.352,0.799 -0.562,-0.937 -1.111,-1.894 -1.641,-2.874 -0.416,-0.771 -0.815,-1.544 -1.198,-2.318 m 1.263,-9.435 c 0.539,-0.972 1.096,-1.92 1.667,-2.848 -1.534,0.203 -2.989,0.458 -4.354,0.754 0.399,1.408 0.885,2.879 1.461,4.401 0.393,-0.77 0.8,-1.54 1.226,-2.307 m 10.788,-10.262 c -1.126,1.228 -2.24,2.573 -3.324,4.02 0.969,-0.039 1.947,-0.06 2.933,-0.06 0.121,0 0.242,10e-4 0.362,10e-4 1.114,0.006 2.216,0.039 3.307,0.094 -1.09,-1.488 -2.19,-2.842 -3.278,-4.055 m 8.126,11.758 c -0.893,-1.652 -1.818,-3.206 -2.759,-4.664 -1.727,-0.143 -3.533,-0.224 -5.409,-0.234 -1.874,-0.009 -3.679,0.054 -5.406,0.179 -0.973,1.473 -1.913,3.021 -2.805,4.629 -0.826,1.49 -1.585,2.987 -2.276,4.475 0.662,1.468 1.403,2.969 2.227,4.493 0.875,1.62 1.799,3.18 2.757,4.664 1.728,0.143 3.534,0.225 5.411,0.234 0.118,10e-4 0.235,10e-4 0.352,10e-4 1.718,0 3.408,-0.063 5.056,-0.183 0.972,-1.472 1.911,-3.019 2.803,-4.626 0.84,-1.515 1.597,-3.008 2.276,-4.468 -0.675,-1.496 -1.417,-3.001 -2.227,-4.5 m 3.75,0.942 c 0.595,-1.519 1.098,-2.989 1.513,-4.395 -1.364,-0.311 -2.819,-0.58 -4.353,-0.799 0.562,0.936 1.111,1.894 1.641,2.874 0.417,0.772 0.815,1.546 1.199,2.32 m -1.001,26.992 c 0.581,0 1.099,-0.117 1.541,-0.356 1.915,-1.035 2.699,-4.519 2.097,-9.321 -0.121,-0.961 -0.294,-1.958 -0.513,-2.981 -2.23,0.488 -4.614,0.856 -7.103,1.09 -1.621,2.343 -3.327,4.484 -5.065,6.366 0.545,0.528 1.092,1.028 1.638,1.492 2.836,2.411 5.469,3.71 7.405,3.71 M 3.824,16.235 c -1.009,0.386 -2.079,0.74 -3.2,1.058 0.247,1.14 0.439,2.25 0.573,3.322 0.78,6.215 -0.497,10.559 -3.595,12.233 -3.096,1.673 -7.431,0.361 -12.202,-3.696 -0.598,-0.508 -1.196,-1.056 -1.792,-1.635 -0.602,0.572 -1.206,1.113 -1.81,1.615 -4.815,4.004 -9.162,5.269 -12.242,3.561 -3.078,-1.707 -4.307,-6.065 -3.46,-12.271 0.145,-1.065 0.349,-2.168 0.607,-3.298 -1.113,-0.33 -2.174,-0.691 -3.174,-1.085 -5.827,-2.298 -9.027,-5.502 -9.009,-9.023 0.017,-3.52 3.247,-6.693 9.096,-8.934 1.009,-0.387 2.079,-0.74 3.2,-1.059 -0.247,-1.139 -0.44,-2.25 -0.574,-3.321 -0.779,-6.215 0.498,-10.559 3.595,-12.233 0.879,-0.474 1.856,-0.709 2.914,-0.709 2.676,0 5.87,1.498 9.289,4.405 0.598,0.508 1.196,1.056 1.792,1.634 0.602,-0.571 1.206,-1.113 1.809,-1.614 3.417,-2.842 6.597,-4.303 9.257,-4.303 1.089,0 2.091,0.245 2.986,0.741 3.078,1.708 4.307,6.066 3.46,12.271 -0.145,1.065 -0.349,2.168 -0.607,3.299 1.113,0.329 2.174,0.691 3.174,1.085 5.827,2.298 9.026,5.502 9.009,9.023 -0.017,3.52 -3.248,6.693 -9.096,8.934"
             style="fill:#1a2e35;fill-opacity:1;fill-rule:nonzero;stroke:none"
             id="path602" /></g><g
           id="g604"
           transform="translate(108.4326,300.9692)"><path
             d="m 0,0 c 0,-3.018 -2.446,-5.464 -5.464,-5.464 -3.017,0 -5.464,2.446 -5.464,5.464 0,3.018 2.447,5.464 5.464,5.464 C -2.446,5.464 0,3.018 0,0"
             style="fill:#1a2e35;fill-opacity:1;fill-rule:nonzero;stroke:none"
             id="path606" /></g></g></g><g
       id="g608"><g
         id="g610"
         clip-path="url(#clipPath614)"><g
           id="g616"
           transform="translate(352.0537,209.3633)"><path
             d="m 0,0 c 0,-4.054 -6.974,-7.34 -15.576,-7.34 -8.603,0 -15.576,3.286 -15.576,7.34 0,4.053 6.973,7.339 15.576,7.339 C -6.974,7.339 0,4.053 0,0"
             style="fill:#aaff00;fill-opacity:1;fill-rule:nonzero;stroke:none"
             id="path618" /></g><g
           id="g620"><g
             id="g622" /><g
             id="g634"><g
               clip-path="url(#clipPath626)"
               opacity="0.5"
               id="g632"><g
                 transform="translate(352.0537,209.3633)"
                 id="g630"><path
                   d="m 0,0 c 0,-4.054 -6.974,-7.34 -15.576,-7.34 -8.603,0 -15.576,3.286 -15.576,7.34 0,4.053 6.973,7.339 15.576,7.339 C -6.974,7.339 0,4.053 0,0"
                   style="fill:#ffffff;fill-opacity:1;fill-rule:nonzero;stroke:none"
                   id="path628" /></g></g></g></g><g
           id="g636"
           transform="translate(324.7822,224.4014)"><path
             d="m 0,0 1.828,-14.616 c 0,-2.295 4.747,-4.155 10.604,-4.155 5.856,0 10.603,1.86 10.603,4.155 L 24.863,0 Z"
             style="fill:#ffffff;fill-opacity:1;fill-rule:nonzero;stroke:none"
             id="path638" /></g><g
           id="g640"
           transform="translate(324.7822,224.4014)"><path
             d="m 0,0 1.828,-14.616 c 0,-2.295 4.747,-4.155 10.604,-4.155 5.856,0 10.603,1.86 10.603,4.155 L 24.863,0 Z"
             style="fill:none;stroke:#1a2e35;stroke-width:1;stroke-linecap:round;stroke-linejoin:round;stroke-miterlimit:10;stroke-dasharray:none;stroke-opacity:1"
             id="path642" /></g><g
           id="g644"
           transform="translate(349.6455,224.4014)"><path
             d="m 0,0 c 0,-2.69 -5.565,-4.872 -12.432,-4.872 -6.865,0 -12.431,2.182 -12.431,4.872 0,2.69 5.566,4.872 12.431,4.872 C -5.565,4.872 0,2.69 0,0"
             style="fill:#ffffff;fill-opacity:1;fill-rule:nonzero;stroke:none"
             id="path646" /></g><g
           id="g648"
           transform="translate(349.6455,224.4014)"><path
             d="m 0,0 c 0,-2.69 -5.565,-4.872 -12.432,-4.872 -6.865,0 -12.431,2.182 -12.431,4.872 0,2.69 5.566,4.872 12.431,4.872 C -5.565,4.872 0,2.69 0,0 Z"
             style="fill:none;stroke:#1a2e35;stroke-width:1;stroke-linecap:round;stroke-linejoin:round;stroke-miterlimit:10;stroke-dasharray:none;stroke-opacity:1"
             id="path650" /></g><g
           id="g652"
           transform="translate(347.8154,224.4014)"><path
             d="m 0,0 c 0,-2.06 -4.746,-3.729 -10.602,-3.729 -5.854,0 -10.601,1.669 -10.601,3.729 0,2.059 4.747,3.728 10.601,3.728 C -4.746,3.728 0,2.059 0,0"
             style="fill:#1a2e35;fill-opacity:1;fill-rule:nonzero;stroke:none"
             id="path654" /></g><g
           id="g656"
           transform="translate(347.8154,224.4014)"><path
             d="m 0,0 c 0,-2.06 -4.746,-3.729 -10.602,-3.729 -5.854,0 -10.601,1.669 -10.601,3.729 0,2.059 4.747,3.728 10.601,3.728 C -4.746,3.728 0,2.059 0,0 Z"
             style="fill:none;stroke:#1a2e35;stroke-width:1;stroke-linecap:round;stroke-linejoin:round;stroke-miterlimit:10;stroke-dasharray:none;stroke-opacity:1"
             id="path658" /></g><g
           id="g660"
           transform="translate(336.2266,222.8486)"><path
             d="m 0,0 c 0,0 -6.541,3.036 -7.836,5.544 -1.295,2.508 -0.285,7.982 -0.285,7.982 0,0 4.233,-1.389 6.289,-5.063 C 0.224,4.79 0,0 0,0"
             style="fill:#aaff00;fill-opacity:1;fill-rule:nonzero;stroke:none"
             id="path662" /></g><g
           id="g664"
           transform="translate(336.2266,222.8486)"><path
             d="m 0,0 c 0,0 -6.541,3.036 -7.836,5.544 -1.295,2.508 -0.285,7.982 -0.285,7.982 0,0 4.233,-1.389 6.289,-5.063 C 0.224,4.79 0,0 0,0 Z"
             style="fill:none;stroke:#1a2e35;stroke-width:1;stroke-linecap:round;stroke-linejoin:round;stroke-miterlimit:10;stroke-dasharray:none;stroke-opacity:1"
             id="path666" /></g><g
           id="g668"
           transform="translate(336.1855,222.999)"><path
             d="m 0,0 c 0,0 0.259,8.012 2.196,11.113 1.939,3.102 8.658,4.782 8.658,4.782 0,0 -0.645,-5.945 -3.101,-9.692 C 5.298,2.455 0,0 0,0"
             style="fill:#aaff00;fill-opacity:1;fill-rule:nonzero;stroke:none"
             id="path670" /></g><g
           id="g672"
           transform="translate(336.1855,222.999)"><path
             d="m 0,0 c 0,0 0.259,8.012 2.196,11.113 1.939,3.102 8.658,4.782 8.658,4.782 0,0 -0.645,-5.945 -3.101,-9.692 C 5.298,2.455 0,0 0,0 Z"
             style="fill:none;stroke:#1a2e35;stroke-width:1;stroke-linecap:round;stroke-linejoin:round;stroke-miterlimit:10;stroke-dasharray:none;stroke-opacity:1"
             id="path674" /></g><g
           id="g676"
           transform="translate(337.0898,222.4824)"><path
             d="m 0,0 c 0,0 -3.747,4.394 -3.747,9.434 0,5.039 4.006,8.916 4.006,8.916 0,0 2.843,-3.877 3.359,-8.142 C 4.136,5.944 0,0 0,0"
             style="fill:#aaff00;fill-opacity:1;fill-rule:nonzero;stroke:none"
             id="path678" /></g><g
           id="g680"
           transform="translate(337.0898,222.4824)"><path
             d="m 0,0 c 0,0 -3.747,4.394 -3.747,9.434 0,5.039 4.006,8.916 4.006,8.916 0,0 2.843,-3.877 3.359,-8.142 C 4.136,5.944 0,0 0,0 Z"
             style="fill:none;stroke:#1a2e35;stroke-width:1;stroke-linecap:round;stroke-linejoin:round;stroke-miterlimit:10;stroke-dasharray:none;stroke-opacity:1"
             id="path682" /></g></g></g></g></svg>
